<?xml version="1.0" encoding="utf-8"?>
<svg version="1.1" xmlns:xlink="http://www.w3.org/1999/xlink" width="281px" height="82px" xmlns="http://www.w3.org/2000/svg">
  <defs>
    <mask fill="white" id="clip1">
      <path d="M 0 72  L 0 0  L 60.809756097561 0  L 271 0  L 271 72  L 0 72  Z " fill-rule="evenodd" />
    </mask>
    <filter x="155px" y="325px" width="281px" height="82px" filterUnits="userSpaceOnUse" id="filter2">
      <feOffset dx="5" dy="5" in="SourceAlpha" result="shadowOffsetInner" />
      <feGaussianBlur stdDeviation="2.5" in="shadowOffsetInner" result="shadowGaussian" />
      <feComposite in2="shadowGaussian" operator="atop" in="SourceAlpha" result="shadowComposite" />
      <feColorMatrix type="matrix" values="0 0 0 0 0  0 0 0 0 0  0 0 0 0 0  0 0 0 0.349019607843137 0  " in="shadowComposite" />
    </filter>
    <g id="widget3">
      <path d="M 0 72  L 0 0  L 60.809756097561 0  L 271 0  L 271 72  L 0 72  Z " fill-rule="nonzero" fill="#ffffff" stroke="none" transform="matrix(1 0 0 1 155 325 )" />
      <path d="M 0 72  L 0 0  L 60.809756097561 0  L 271 0  L 271 72  L 0 72  Z " stroke-width="2" stroke="#333333" fill="none" transform="matrix(1 0 0 1 155 325 )" mask="url(#clip1)" />
    </g>
  </defs>
  <g transform="matrix(1 0 0 1 -155 -325 )">
    <use xlink:href="#widget3" filter="url(#filter2)" />
    <use xlink:href="#widget3" />
  </g>
</svg>