<?xml version="1.0" encoding="utf-8"?>
<svg version="1.1" xmlns:xlink="http://www.w3.org/1999/xlink" width="104px" height="56px" xmlns="http://www.w3.org/2000/svg">
  <defs>
    <mask fill="white" id="clip13">
      <path d="M 0 46  L 0 0  L 21.0926829268293 0  L 94 0  L 94 46  L 0 46  Z " fill-rule="evenodd" />
    </mask>
    <filter x="141px" y="815px" width="104px" height="56px" filterUnits="userSpaceOnUse" id="filter14">
      <feOffset dx="5" dy="5" in="SourceAlpha" result="shadowOffsetInner" />
      <feGaussianBlur stdDeviation="2.5" in="shadowOffsetInner" result="shadowGaussian" />
      <feComposite in2="shadowGaussian" operator="atop" in="SourceAlpha" result="shadowComposite" />
      <feColorMatrix type="matrix" values="0 0 0 0 0  0 0 0 0 0  0 0 0 0 0  0 0 0 0.349019607843137 0  " in="shadowComposite" />
    </filter>
    <g id="widget15">
      <path d="M 0 46  L 0 0  L 21.0926829268293 0  L 94 0  L 94 46  L 0 46  Z " fill-rule="nonzero" fill="#ffffff" stroke="none" transform="matrix(1 0 0 1 141 815 )" />
      <path d="M 0 46  L 0 0  L 21.0926829268293 0  L 94 0  L 94 46  L 0 46  Z " stroke-width="2" stroke="#333333" fill="none" transform="matrix(1 0 0 1 141 815 )" mask="url(#clip13)" />
    </g>
  </defs>
  <g transform="matrix(1 0 0 1 -141 -815 )">
    <use xlink:href="#widget15" filter="url(#filter14)" />
    <use xlink:href="#widget15" />
  </g>
</svg>