<?xml version="1.0" encoding="utf-8"?>
<svg version="1.1" xmlns:xlink="http://www.w3.org/1999/xlink" width="91px" height="79px" xmlns="http://www.w3.org/2000/svg">
  <defs>
    <mask fill="white" id="clip16">
      <path d="M 0 69  L 0 0  L 18.1756097560976 0  L 81 0  L 81 69  L 0 69  Z " fill-rule="evenodd" />
    </mask>
    <filter x="353px" y="854px" width="91px" height="79px" filterUnits="userSpaceOnUse" id="filter17">
      <feOffset dx="5" dy="5" in="SourceAlpha" result="shadowOffsetInner" />
      <feGaussianBlur stdDeviation="2.5" in="shadowOffsetInner" result="shadowGaussian" />
      <feComposite in2="shadowGaussian" operator="atop" in="SourceAlpha" result="shadowComposite" />
      <feColorMatrix type="matrix" values="0 0 0 0 0  0 0 0 0 0  0 0 0 0 0  0 0 0 0.349019607843137 0  " in="shadowComposite" />
    </filter>
    <g id="widget18">
      <path d="M 0 69  L 0 0  L 18.1756097560976 0  L 81 0  L 81 69  L 0 69  Z " fill-rule="nonzero" fill="#ffffff" stroke="none" transform="matrix(1 0 0 1 353 854 )" />
      <path d="M 0 69  L 0 0  L 18.1756097560976 0  L 81 0  L 81 69  L 0 69  Z " stroke-width="2" stroke="#333333" fill="none" transform="matrix(1 0 0 1 353 854 )" mask="url(#clip16)" />
    </g>
  </defs>
  <g transform="matrix(1 0 0 1 -353 -854 )">
    <use xlink:href="#widget18" filter="url(#filter17)" />
    <use xlink:href="#widget18" />
  </g>
</svg>