<?xml version="1.0" encoding="utf-8"?>
<svg version="1.1" xmlns:xlink="http://www.w3.org/1999/xlink" width="154px" height="68px" xmlns="http://www.w3.org/2000/svg">
  <defs>
    <mask fill="white" id="clip19">
      <path d="M 0 58  L 0 0  L 32.3121951219512 0  L 144 0  L 144 58  L 0 58  Z " fill-rule="evenodd" />
    </mask>
    <filter x="453px" y="854px" width="154px" height="68px" filterUnits="userSpaceOnUse" id="filter20">
      <feOffset dx="5" dy="5" in="SourceAlpha" result="shadowOffsetInner" />
      <feGaussianBlur stdDeviation="2.5" in="shadowOffsetInner" result="shadowGaussian" />
      <feComposite in2="shadowGaussian" operator="atop" in="SourceAlpha" result="shadowComposite" />
      <feColorMatrix type="matrix" values="0 0 0 0 0  0 0 0 0 0  0 0 0 0 0  0 0 0 0.349019607843137 0  " in="shadowComposite" />
    </filter>
    <g id="widget21">
      <path d="M 0 58  L 0 0  L 32.3121951219512 0  L 144 0  L 144 58  L 0 58  Z " fill-rule="nonzero" fill="#ffffff" stroke="none" transform="matrix(1 0 0 1 453 854 )" />
      <path d="M 0 58  L 0 0  L 32.3121951219512 0  L 144 0  L 144 58  L 0 58  Z " stroke-width="2" stroke="#333333" fill="none" transform="matrix(1 0 0 1 453 854 )" mask="url(#clip19)" />
    </g>
  </defs>
  <g transform="matrix(1 0 0 1 -453 -854 )">
    <use xlink:href="#widget21" filter="url(#filter20)" />
    <use xlink:href="#widget21" />
  </g>
</svg>