<?xml version="1.0" encoding="utf-8"?>
<svg version="1.1" xmlns:xlink="http://www.w3.org/1999/xlink" width="181px" height="82px" xmlns="http://www.w3.org/2000/svg">
  <defs>
    <mask fill="white" id="clip22">
      <path d="M 0 72  L 0 0  L 38.3707317073171 0  L 171 0  L 171 72  L 0 72  Z " fill-rule="evenodd" />
    </mask>
    <filter x="453px" y="922px" width="181px" height="82px" filterUnits="userSpaceOnUse" id="filter23">
      <feOffset dx="5" dy="5" in="SourceAlpha" result="shadowOffsetInner" />
      <feGaussianBlur stdDeviation="2.5" in="shadowOffsetInner" result="shadowGaussian" />
      <feComposite in2="shadowGaussian" operator="atop" in="SourceAlpha" result="shadowComposite" />
      <feColorMatrix type="matrix" values="0 0 0 0 0  0 0 0 0 0  0 0 0 0 0  0 0 0 0.349019607843137 0  " in="shadowComposite" />
    </filter>
    <g id="widget24">
      <path d="M 0 72  L 0 0  L 38.3707317073171 0  L 171 0  L 171 72  L 0 72  Z " fill-rule="nonzero" fill="#ffffff" stroke="none" transform="matrix(1 0 0 1 453 922 )" />
      <path d="M 0 72  L 0 0  L 38.3707317073171 0  L 171 0  L 171 72  L 0 72  Z " stroke-width="2" stroke="#333333" fill="none" transform="matrix(1 0 0 1 453 922 )" mask="url(#clip22)" />
    </g>
  </defs>
  <g transform="matrix(1 0 0 1 -453 -922 )">
    <use xlink:href="#widget24" filter="url(#filter23)" />
    <use xlink:href="#widget24" />
  </g>
</svg>