<?xml version="1.0" encoding="utf-8"?>
<svg version="1.1" xmlns:xlink="http://www.w3.org/1999/xlink" width="159px" height="56px" xmlns="http://www.w3.org/2000/svg">
  <defs>
    <mask fill="white" id="clip28">
      <path d="M 0 46  L 0 0  L 33.4341463414634 0  L 149 0  L 149 46  L 0 46  Z " fill-rule="evenodd" />
    </mask>
    <filter x="882px" y="861px" width="159px" height="56px" filterUnits="userSpaceOnUse" id="filter29">
      <feOffset dx="5" dy="5" in="SourceAlpha" result="shadowOffsetInner" />
      <feGaussianBlur stdDeviation="2.5" in="shadowOffsetInner" result="shadowGaussian" />
      <feComposite in2="shadowGaussian" operator="atop" in="SourceAlpha" result="shadowComposite" />
      <feColorMatrix type="matrix" values="0 0 0 0 0  0 0 0 0 0  0 0 0 0 0  0 0 0 0.349019607843137 0  " in="shadowComposite" />
    </filter>
    <g id="widget30">
      <path d="M 0 46  L 0 0  L 33.4341463414634 0  L 149 0  L 149 46  L 0 46  Z " fill-rule="nonzero" fill="#ffffff" stroke="none" transform="matrix(1 0 0 1 882 861 )" />
      <path d="M 0 46  L 0 0  L 33.4341463414634 0  L 149 0  L 149 46  L 0 46  Z " stroke-width="2" stroke="#333333" fill="none" transform="matrix(1 0 0 1 882 861 )" mask="url(#clip28)" />
    </g>
  </defs>
  <g transform="matrix(1 0 0 1 -882 -861 )">
    <use xlink:href="#widget30" filter="url(#filter29)" />
    <use xlink:href="#widget30" />
  </g>
</svg>