<?xml version="1.0" encoding="utf-8"?>
<svg version="1.1" xmlns:xlink="http://www.w3.org/1999/xlink" width="12px" height="12px" viewBox="874 252.5  12 12" xmlns="http://www.w3.org/2000/svg">
  <path d="M 880 252.5  C 883.36 252.5  886 255.14  886 258.5  C 886 261.86  883.36 264.5  880 264.5  C 876.64 264.5  874 261.86  874 258.5  C 874 255.14  876.64 252.5  880 252.5  Z " fill-rule="nonzero" fill="#f0f0f0" stroke="none" />
  <path d="M 880 253  C 883.08 253  885.5 255.42  885.5 258.5  C 885.5 261.58  883.08 264  880 264  C 876.92 264  874.5 261.58  874.5 258.5  C 874.5 255.42  876.92 253  880 253  Z " stroke-width="1" stroke="#797979" fill="none" />
  <path d="M 880 261.5  C 878.32 261.5  877 260.18  877 258.5  C 877 256.82  878.32 255.5  880 255.5  C 881.68 255.5  883 256.82  883 258.5  C 883 260.18  881.68 261.5  880 261.5  " fill-rule="nonzero" fill="#797979" stroke="none" />
</svg>