<?xml version="1.0" encoding="utf-8"?>
<svg version="1.1" xmlns:xlink="http://www.w3.org/1999/xlink" width="12px" height="12px" viewBox="982 251.5  12 12" xmlns="http://www.w3.org/2000/svg">
  <path d="M 988 251.5  C 991.36 251.5  994 254.14  994 257.5  C 994 260.86  991.36 263.5  988 263.5  C 984.64 263.5  982 260.86  982 257.5  C 982 254.14  984.64 251.5  988 251.5  Z " fill-rule="nonzero" fill="#ffffff" stroke="none" />
  <path d="M 988 252  C 991.08 252  993.5 254.42  993.5 257.5  C 993.5 260.58  991.08 263  988 263  C 984.92 263  982.5 260.58  982.5 257.5  C 982.5 254.42  984.92 252  988 252  Z " stroke-width="1" stroke="#797979" fill="none" />
  <path d="M 988 260.5  C 986.32 260.5  985 259.18  985 257.5  C 985 255.82  986.32 254.5  988 254.5  C 989.68 254.5  991 255.82  991 257.5  C 991 259.18  989.68 260.5  988 260.5  " fill-rule="nonzero" fill="#797979" stroke="none" />
</svg>